<?xml version="1.0" encoding="UTF-8"?>
<svg width="512" height="512" viewBox="0 0 512 512" fill="none" xmlns="http://www.w3.org/2000/svg">
    <!-- Background Circle with Gradient -->
    <circle cx="256" cy="256" r="248" fill="url(#gradient)" stroke="url(#strokeGradient)" stroke-width="16"/>
    
    <!-- WSZ Letters -->
    <g transform="translate(96, 156)">
        <!-- W -->
        <path d="M60 40L90 160L120 80L150 160L180 40" stroke="white" stroke-width="24" stroke-linecap="round" stroke-linejoin="round"/>
        <!-- S -->
        <path d="M200 60C200 40 180 20 150 20C120 20 100 40 100 60C100 120 200 100 200 160C200 180 180 200 150 200C120 200 100 180 100 160" stroke="white" stroke-width="24" stroke-linecap="round" stroke-linejoin="round"/>
        <!-- Z -->
        <path d="M220 40H300M220 160H300M220 40L300 160" stroke="white" stroke-width="24" stroke-linecap="round" stroke-linejoin="round"/>
    </g>
    
    <!-- Decorative Elements -->
    <circle cx="256" cy="256" r="200" stroke="url(#glowGradient)" stroke-width="2" stroke-dasharray="4 4"/>
    
    <!-- Gradients -->
    <defs>
        <linearGradient id="gradient" x1="0" y1="0" x2="512" y2="512" gradientUnits="userSpaceOnUse">
            <stop offset="0%" stop-color="#4a90e2"/>
            <stop offset="100%" stop-color="#2563eb"/>
        </linearGradient>
        <linearGradient id="strokeGradient" x1="0" y1="0" x2="512" y2="512" gradientUnits="userSpaceOnUse">
            <stop offset="0%" stop-color="#60a5fa"/>
            <stop offset="100%" stop-color="#3b82f6"/>
        </linearGradient>
        <linearGradient id="glowGradient" x1="0" y1="0" x2="512" y2="512" gradientUnits="userSpaceOnUse">
            <stop offset="0%" stop-color="#ffffff" stop-opacity="0.3"/>
            <stop offset="100%" stop-color="#ffffff" stop-opacity="0.1"/>
        </linearGradient>
    </defs>
</svg> 